<svg xmlns="http://www.w3.org/2000/svg" xmlns:xlink="http://www.w3.org/1999/xlink" version="1.1" width="256" height="256" viewBox="0 0 256 256" xml:space="preserve">

<defs>
</defs>
<g style="stroke: none; stroke-width: 0; stroke-dasharray: none; stroke-linecap: butt; stroke-linejoin: miter; stroke-miterlimit: 10; fill: none; fill-rule: nonzero; opacity: 1;" transform="translate(1.4065934065934016 1.4065934065934016) scale(2.81 2.81)" >
	<path d="M 45 0 C 25.463 0 9.625 15.838 9.625 35.375 c 0 8.722 3.171 16.693 8.404 22.86 L 45 90 l 26.97 -31.765 c 5.233 -6.167 8.404 -14.139 8.404 -22.86 C 80.375 15.838 64.537 0 45 0 z M 56.188 48 L 45 42.118 L 33.813 48 l 2.137 -12.458 l -9.051 -8.822 l 12.508 -1.818 L 45 13.568 l 5.594 11.334 l 12.508 1.818 l -9.051 8.822 L 56.188 48 z" style="stroke: none; stroke-width: 1; stroke-dasharray: none; stroke-linecap: butt; stroke-linejoin: miter; stroke-miterlimit: 10; fill: rgb(203,0,0); fill-rule: nonzero; opacity: 1;" transform=" matrix(1 0 0 1 0 0) " stroke-linecap="round" />
	<path d="M 45 2 c 18.403 0 33.375 14.972 33.375 33.375 c 0 7.881 -2.816 15.54 -7.929 21.566 L 45 86.91 L 19.555 56.941 c -5.113 -6.026 -7.929 -13.685 -7.929 -21.567 C 11.625 16.972 26.597 2 45 2 M 38.078 23.075 l -11.468 1.666 l -4.01 0.583 l 2.902 2.829 l 8.298 8.089 l -1.959 11.421 l -0.685 3.994 l 3.587 -1.886 L 45 44.378 l 10.257 5.392 l 3.587 1.886 l -0.685 -3.994 L 56.2 36.241 l 8.298 -8.089 l 2.902 -2.829 l -4.01 -0.583 l -11.468 -1.666 l -5.128 -10.391 L 45 9.049 l -1.793 3.634 L 38.078 23.075 M 45 0 C 25.463 0 9.625 15.838 9.625 35.375 c 0 8.722 3.171 16.693 8.404 22.86 L 45 90 l 26.97 -31.765 c 5.233 -6.167 8.404 -14.139 8.404 -22.86 C 80.375 15.838 64.537 0 45 0 L 45 0 z M 33.813 48 l 2.137 -12.458 l -9.051 -8.822 l 12.508 -1.818 L 45 13.568 l 5.594 11.334 l 12.508 1.818 l -9.051 8.822 L 56.188 48 L 45 42.118 L 33.813 48 L 33.813 48 z" style="stroke: none; stroke-width: 1; stroke-dasharray: none; stroke-linecap: butt; stroke-linejoin: miter; stroke-miterlimit: 10; fill: rgb(203,0,0); fill-rule: nonzero; opacity: 1;" transform=" matrix(1 0 0 1 0 0) " stroke-linecap="round" />
</g>
</svg>